# xmcd
# Track frame offsets:
# 183
# 14083
# 29553
# 41975
# 53275
# 63808
# 79270
# 93710
# 108033
# 125320
# 140990
# 157588
#
# Disc length: 2284 seconds
# Revision: 0
# Processed by: cddbd v1.4PL0 Copyright (c) Steve Scherf et al.
# Submitted via: VisiTrax 2.9.5.181 - For more info visit www.synapsa.com
#
DISCID=9a08ea0c
DTITLE=The Tennessee Fliers - The Tennessee Fliers
DYEAR=1900
DGENRE=
TTITLE0=Cottonfields
TTITLE1=Barbara Ann
TTITLE2=Renegade
TTITLE3=High Enough
TTITLE4=Honky Tonk Man
TTITLE5=Shufflebord
TTITLE6=Jambalaya
TTITLE7=Long gone lonesome blues
TTITLE8=Papa can we take the moon to Tennessee
TTITLE9=If it aint one thing its you
TTITLE10=Fly by night
TTITLE11=Stitches
EXTD=
EXTT0=
EXTT1=
EXTT2=
EXTT3=
EXTT4=
EXTT5=
EXTT6=
EXTT7=
EXTT8=
EXTT9=
EXTT10=
EXTT11=
PLAYORDER=
